<svg version="1.1" id="Layer_1" xmlns="http://www.w3.org/2000/svg" xmlns:xlink="http://www.w3.org/1999/xlink" x="0px" y="0px"
	 width="100%" viewBox="0 0 256 256" enable-background="new 0 0 256 256" xml:space="preserve">
<path fill="#000000" opacity="1.000000" stroke="none" 
	d="
M91.209366,109.811104 
	C96.654892,107.518921 101.759048,110.034988 106.851707,109.589409 
	C108.174416,109.473679 109.558296,111.074348 108.775818,111.705833 
	C105.722641,114.169739 108.352097,116.947243 107.863914,119.471024 
	C106.912415,124.389992 103.626740,126.583748 98.920914,127.522202 
	C96.590012,127.987030 93.554787,126.738602 91.627525,129.782455 
	C93.939552,131.594421 96.339195,130.772751 98.525177,130.905762 
	C106.163673,131.370499 109.908760,133.723389 110.261330,138.466599 
	C110.639305,143.551620 107.078461,146.509933 99.464729,147.739044 
	C95.755516,148.337814 92.166924,147.758057 88.592010,147.073715 
	C86.393883,146.652893 83.342094,144.653183 84.370285,143.098816 
	C87.766205,137.965027 83.102684,131.351822 88.019821,126.996681 
	C83.783447,117.647766 84.411545,113.994591 91.209366,109.811104 
M90.763130,140.689453 
	C92.985886,144.024078 101.453880,144.860947 103.664093,141.951279 
	C104.876007,140.355835 104.218307,139.230057 102.716850,138.290482 
	C99.722000,136.416382 93.642319,137.309906 90.763130,140.689453 
M93.224754,117.589165 
	C93.245674,118.243919 93.228661,118.902519 93.294403,119.552742 
	C93.521446,121.798363 94.729874,123.409554 97.000427,123.356468 
	C99.665550,123.294151 99.788239,121.024658 99.843628,119.012207 
	C99.908714,116.647011 99.810783,114.188568 96.937271,113.491516 
	C94.353806,112.864822 93.396729,114.482140 93.224754,117.589165 
z"/>
<path fill="#000000" opacity="1.000000" stroke="none" 
	d="
M156.781616,134.976105 
	C159.491806,131.687973 160.008133,128.207047 159.809830,124.286072 
	C159.524551,118.645782 159.745895,112.980659 159.714218,107.326340 
	C159.703217,105.362228 159.986908,103.306778 157.741028,102.090324 
	C156.529541,101.434128 156.208267,100.014534 157.173203,99.125069 
	C159.506882,96.973877 162.523788,97.770256 165.272919,97.891380 
	C167.785645,98.002075 167.819519,100.230034 167.850266,102.014618 
	C167.944382,107.476906 167.884476,112.941833 167.884476,118.562630 
	C173.578888,116.964302 174.793777,115.402824 174.632050,110.196922 
	C177.341980,108.779587 180.387253,109.735550 183.262741,109.394386 
	C184.298447,109.271507 185.211273,109.823204 185.510681,110.963776 
	C185.800674,112.068398 185.363571,112.797134 184.403961,113.445557 
	C181.434738,115.451942 176.464371,117.020088 176.800980,120.512459 
	C177.224075,124.901924 180.796860,128.747910 184.062424,132.105667 
	C184.954666,133.023087 186.548859,133.433929 185.895126,135.161667 
	C185.329712,136.655960 183.898514,136.744308 182.576889,136.899979 
	C179.526810,137.259232 177.157471,136.467529 175.425095,133.599060 
	C173.763641,130.848022 172.417923,127.764465 169.578323,125.478592 
	C167.420395,128.256851 167.447113,130.522949 169.796188,132.701263 
	C171.525421,134.304779 171.157639,136.128143 169.145569,136.436417 
	C165.039413,137.065475 160.685150,138.451965 156.781616,134.976105 
z"/>
<path fill="#000000" opacity="1.000000" stroke="none" 
	d="
M208.553528,133.398895 
	C207.135544,126.225266 203.935684,120.087921 200.800156,112.915192 
	C209.681702,114.431610 217.546722,113.911224 225.415207,113.615677 
	C226.742538,113.565819 227.996262,113.611626 229.295349,113.094841 
	C233.657455,111.359566 234.229355,111.841454 233.484177,116.337074 
	C232.940781,119.615402 232.418869,122.955009 233.494965,126.160690 
	C234.663681,129.642319 232.978912,131.383041 230.009476,133.064514 
	C228.197144,130.353241 228.793716,126.107948 224.529678,125.183670 
	C221.338669,128.403671 223.095642,134.314438 218.461105,137.154816 
	C216.526947,133.227921 218.574249,127.291351 212.004303,125.663895 
	C212.004303,128.497040 212.058578,131.134644 211.976471,133.768005 
	C211.945511,134.760803 211.593018,135.827484 210.326630,135.858643 
	C209.006729,135.891144 208.876190,134.752579 208.553528,133.398895 
z"/>
<path fill="#000000" opacity="1.000000" stroke="none" 
	d="
M74.773209,137.138290 
	C72.568214,135.336716 70.881699,135.064270 68.314354,136.215515 
	C62.643242,138.758575 57.472626,137.014359 56.054745,132.699631 
	C54.453564,127.827110 57.728554,123.246635 64.001488,121.636009 
	C65.285950,121.306206 66.591835,121.021164 67.905434,120.852608 
	C69.818230,120.607201 71.022278,119.801239 70.904182,117.680733 
	C70.794533,115.712006 70.151535,114.029541 68.079109,113.463997 
	C66.427177,113.013206 64.641525,112.934105 63.691948,114.741882 
	C62.682964,116.662758 62.037373,119.134285 59.126633,117.924667 
	C56.938168,117.015190 57.854919,114.778145 57.720997,113.061035 
	C57.485260,110.038528 59.746544,109.525383 61.925758,109.270828 
	C64.549400,108.964363 67.234222,108.653397 69.846214,108.879570 
	C76.320335,109.440155 78.994247,112.377533 79.237762,118.839317 
	C79.350243,121.823936 79.238258,124.816391 79.289742,127.804237 
	C79.309586,128.955917 79.236237,130.213486 79.657417,131.236725 
	C82.045563,137.038666 82.092194,137.019470 74.773209,137.138290 
M64.635620,132.114792 
	C67.201660,133.512207 69.138161,132.557205 70.449066,130.289948 
	C71.205399,128.981857 71.346817,127.312866 70.240288,126.097542 
	C69.078568,124.821617 67.409500,125.141769 66.087303,125.798004 
	C63.625946,127.019615 62.977955,129.040237 64.635620,132.114792 
z"/>
<path fill="#000000" opacity="1.000000" stroke="none" 
	d="
M37.418282,126.087257 
	C37.544369,131.344299 40.362503,133.038803 44.911236,132.958893 
	C47.174202,132.919128 49.420933,131.741028 51.613449,132.670288 
	C52.153797,133.638016 52.144497,134.619507 51.389618,135.040634 
	C45.969040,138.064590 40.257450,138.264435 34.653191,135.865799 
	C30.386316,134.039551 28.388809,128.885513 29.062765,123.037964 
	C30.282818,112.452217 36.754005,107.093857 46.014927,109.001007 
	C51.492096,110.128952 55.304661,116.972702 53.428841,122.207840 
	C52.580505,124.575417 50.566578,123.930954 48.846378,124.215569 
	C45.073494,124.839806 40.932827,122.674866 37.418282,126.087257 
M43.598511,113.837532 
	C41.146423,112.773361 39.094292,113.052948 37.883633,115.692696 
	C37.324627,116.911552 36.886780,118.504356 38.316326,119.203110 
	C40.404789,120.223946 42.984692,120.537369 44.824848,119.044571 
	C46.570423,117.628502 45.283707,115.777710 43.598511,113.837532 
z"/>
<path fill="#000000" opacity="1.000000" stroke="none" 
	d="
M132.844788,114.058746 
	C136.208252,109.607826 140.574188,108.382637 145.467834,108.857689 
	C152.201385,109.511353 155.962860,115.231293 154.300629,121.763336 
	C153.821945,123.644394 152.638351,124.112541 151.043427,124.152267 
	C148.547897,124.214432 146.040283,124.059166 143.556702,124.246620 
	C141.617188,124.393013 138.691544,123.218903 138.419296,126.537941 
	C138.160873,129.688690 139.796524,131.991013 143.045517,132.710312 
	C145.359070,133.222519 147.685913,132.826843 149.987366,132.414658 
	C150.968567,132.238937 151.963074,131.983459 152.735382,132.924591 
	C153.121811,133.779770 153.065918,134.707993 152.273361,135.142151 
	C146.979782,138.041916 141.401733,138.161423 135.910233,136.037216 
	C130.940308,134.114761 129.963760,129.583008 129.992584,124.907829 
	C130.015152,121.244232 130.660370,117.614090 132.844788,114.058746 
M146.376907,117.593597 
	C146.064606,115.548073 145.542038,113.633789 143.050247,113.324287 
	C141.487854,113.130226 140.045288,113.444038 139.247849,114.990067 
	C138.566299,116.311371 137.606491,118.185928 139.115189,118.998573 
	C141.394531,120.226318 144.098160,120.697708 146.376907,117.593597 
z"/>
<path fill="#000000" opacity="1.000000" stroke="none" 
	d="
M127.115273,112.696632 
	C122.244873,113.380013 120.629898,115.991653 121.305893,120.418266 
	C121.504883,121.721306 121.338623,123.080261 121.338219,124.413589 
	C121.336014,131.689301 121.335854,131.689301 127.972328,133.821762 
	C126.449203,138.099594 122.813393,137.313049 119.744392,137.180405 
	C116.330048,137.032837 114.124275,134.948502 113.837105,131.510956 
	C113.546577,128.033157 113.734253,124.517502 113.644821,121.020157 
	C113.570702,118.121750 114.467690,114.874039 111.002571,113.075119 
	C110.746704,112.942276 110.552818,112.568520 110.458282,112.266632 
	C109.946083,110.631012 116.904892,102.561302 118.616043,102.800514 
	C119.106079,102.869019 119.987755,102.984062 120.007195,103.155266 
	C120.528572,107.747925 124.306801,109.346352 127.504219,111.496178 
	C127.616951,111.571968 127.416679,112.113281 127.115273,112.696632 
z"/>
<path fill="#000000" opacity="1.000000" stroke="none" 
	d="
M225.192474,103.319870 
	C227.928223,103.677925 229.938950,104.590469 228.645279,107.463097 
	C227.965073,108.973473 226.338562,110.313171 224.620987,108.991043 
	C222.377930,107.264435 222.216278,105.173363 225.192474,103.319870 
z"/>
<path fill="#000000" opacity="1.000000" stroke="none" 
	d="
M209.559006,109.417931 
	C206.344482,109.394409 205.269501,107.712654 206.053162,105.187569 
	C206.730743,103.004318 208.807480,103.340439 210.188980,104.217896 
	C212.785080,105.866844 212.096832,107.718071 209.559006,109.417931 
z"/>
</svg>